<?xml version="1.0" encoding="UTF-8" standalone="no"?>
<!DOCTYPE svg PUBLIC "-//W3C//DTD SVG 1.1//EN"
 "http://www.w3.org/Graphics/SVG/1.1/DTD/svg11.dtd">
<!-- Generated by graphviz version 2.40.1 (20161225.0304)
 -->
<!-- Title: %3 Pages: 1 -->
<svg width="700pt" height="118pt"
 viewBox="0.00 0.00 699.59 118.33" xmlns="http://www.w3.org/2000/svg" xmlns:xlink="http://www.w3.org/1999/xlink">
<g id="graph0" class="graph" transform="scale(1 1) rotate(0) translate(4 114.3252)">
<title>%3</title>
<polygon fill="#ffffff" stroke="transparent" points="-4,4 -4,-114.3252 695.5868,-114.3252 695.5868,4 -4,4"/>
<text text-anchor="middle" x="345.7934" y="-6.8" font-family="Times,serif" font-size="14.00" fill="#000000">acc.hmm</text>
<!-- INT -->
<g id="node1" class="node">
<title>INT</title>
<ellipse fill="none" stroke="#000000" cx="24.8402" cy="-57.657" rx="24.6814" ry="24.6814"/>
<text text-anchor="middle" x="24.8402" y="-53.457" font-family="Times,serif" font-size="14.00" fill="#000000">INT</text>
</g>
<!-- INT&#45;&gt;INT -->
<g id="edge1" class="edge">
<title>INT&#45;&gt;INT</title>
<path fill="none" stroke="#000000" d="M8.264,-76.5972C3.9398,-88.7761 9.4652,-100.4972 24.8402,-100.4972 35.891,-100.4972 41.8534,-94.4421 42.7275,-86.5139"/>
<polygon fill="#000000" stroke="#000000" points="46.197,-86.0521 41.4163,-76.5972 39.2574,-86.9697 46.197,-86.0521"/>
</g>
<!-- ACC&#45;0 -->
<g id="node2" class="node">
<title>ACC&#45;0</title>
<ellipse fill="none" stroke="#000000" cx="121.3374" cy="-57.657" rx="35.8147" ry="35.8147"/>
<text text-anchor="middle" x="121.3374" y="-53.457" font-family="Times,serif" font-size="14.00" fill="#000000">ACC&#45;0</text>
</g>
<!-- INT&#45;&gt;ACC&#45;0 -->
<g id="edge2" class="edge">
<title>INT&#45;&gt;ACC&#45;0</title>
<path fill="none" stroke="#000000" d="M49.6906,-57.657C57.5574,-57.657 66.5193,-57.657 75.3779,-57.657"/>
<polygon fill="#000000" stroke="#000000" points="75.6582,-61.1571 85.6581,-57.657 75.6581,-54.1571 75.6582,-61.1571"/>
</g>
<!-- ACC&#45;1 -->
<g id="node3" class="node">
<title>ACC&#45;1</title>
<ellipse fill="none" stroke="#000000" cx="228.6514" cy="-57.657" rx="35.8147" ry="35.8147"/>
<text text-anchor="middle" x="228.6514" y="-53.457" font-family="Times,serif" font-size="14.00" fill="#000000">ACC&#45;1</text>
</g>
<!-- ACC&#45;0&#45;&gt;ACC&#45;1 -->
<g id="edge3" class="edge">
<title>ACC&#45;0&#45;&gt;ACC&#45;1</title>
<path fill="none" stroke="#000000" d="M157.0714,-57.657C165.2207,-57.657 173.9931,-57.657 182.5081,-57.657"/>
<polygon fill="#000000" stroke="#000000" points="182.7075,-61.1571 192.7075,-57.657 182.7075,-54.1571 182.7075,-61.1571"/>
</g>
<!-- ACC&#45;2 -->
<g id="node4" class="node">
<title>ACC&#45;2</title>
<ellipse fill="none" stroke="#000000" cx="335.9654" cy="-57.657" rx="35.8147" ry="35.8147"/>
<text text-anchor="middle" x="335.9654" y="-53.457" font-family="Times,serif" font-size="14.00" fill="#000000">ACC&#45;2</text>
</g>
<!-- ACC&#45;1&#45;&gt;ACC&#45;2 -->
<g id="edge4" class="edge">
<title>ACC&#45;1&#45;&gt;ACC&#45;2</title>
<path fill="none" stroke="#000000" d="M264.3854,-57.657C272.5347,-57.657 281.3072,-57.657 289.8221,-57.657"/>
<polygon fill="#000000" stroke="#000000" points="290.0216,-61.1571 300.0215,-57.657 290.0215,-54.1571 290.0216,-61.1571"/>
</g>
<!-- ACC&#45;3 -->
<g id="node5" class="node">
<title>ACC&#45;3</title>
<ellipse fill="none" stroke="#000000" cx="443.2794" cy="-57.657" rx="35.8147" ry="35.8147"/>
<text text-anchor="middle" x="443.2794" y="-53.457" font-family="Times,serif" font-size="14.00" fill="#000000">ACC&#45;3</text>
</g>
<!-- ACC&#45;2&#45;&gt;ACC&#45;3 -->
<g id="edge5" class="edge">
<title>ACC&#45;2&#45;&gt;ACC&#45;3</title>
<path fill="none" stroke="#000000" d="M371.6994,-57.657C379.8487,-57.657 388.6212,-57.657 397.1361,-57.657"/>
<polygon fill="#000000" stroke="#000000" points="397.3356,-61.1571 407.3355,-57.657 397.3355,-54.1571 397.3356,-61.1571"/>
</g>
<!-- ACC&#45;4 -->
<g id="node6" class="node">
<title>ACC&#45;4</title>
<ellipse fill="none" stroke="#000000" cx="550.5934" cy="-57.657" rx="35.8147" ry="35.8147"/>
<text text-anchor="middle" x="550.5934" y="-53.457" font-family="Times,serif" font-size="14.00" fill="#000000">ACC&#45;4</text>
</g>
<!-- ACC&#45;3&#45;&gt;ACC&#45;4 -->
<g id="edge6" class="edge">
<title>ACC&#45;3&#45;&gt;ACC&#45;4</title>
<path fill="none" stroke="#000000" d="M479.0134,-57.657C487.1627,-57.657 495.9352,-57.657 504.4501,-57.657"/>
<polygon fill="#000000" stroke="#000000" points="504.6496,-61.1571 514.6496,-57.657 504.6495,-54.1571 504.6496,-61.1571"/>
</g>
<!-- EXON -->
<g id="node7" class="node">
<title>EXON</title>
<ellipse fill="none" stroke="#000000" cx="656.9186" cy="-57.657" rx="34.8371" ry="34.8371"/>
<text text-anchor="middle" x="656.9186" y="-53.457" font-family="Times,serif" font-size="14.00" fill="#000000">EXON</text>
</g>
<!-- ACC&#45;4&#45;&gt;EXON -->
<g id="edge7" class="edge">
<title>ACC&#45;4&#45;&gt;EXON</title>
<path fill="none" stroke="#000000" d="M586.294,-57.657C594.5289,-57.657 603.3927,-57.657 611.9647,-57.657"/>
<polygon fill="#000000" stroke="#000000" points="612.2142,-61.1571 622.2141,-57.657 612.2141,-54.1571 612.2142,-61.1571"/>
</g>
<!-- EXON&#45;&gt;EXON -->
<g id="edge8" class="edge">
<title>EXON&#45;&gt;EXON</title>
<path fill="none" stroke="#000000" d="M637.3541,-86.3699C635.4909,-99.2155 642.0123,-110.3252 656.9186,-110.3252 667.6325,-110.3252 674.0148,-104.5859 676.0655,-96.5879"/>
<polygon fill="#000000" stroke="#000000" points="679.5717,-96.5045 676.4831,-86.3699 672.5775,-96.2186 679.5717,-96.5045"/>
</g>
</g>
</svg>
