<?xml version="1.0" encoding="UTF-8" standalone="no"?>
<!DOCTYPE svg PUBLIC "-//W3C//DTD SVG 1.1//EN"
 "http://www.w3.org/Graphics/SVG/1.1/DTD/svg11.dtd">
<!-- Generated by graphviz version 2.40.1 (20161225.0304)
 -->
<!-- Title: %3 Pages: 1 -->
<svg width="709pt" height="119pt"
 viewBox="0.00 0.00 709.35 119.30" xmlns="http://www.w3.org/2000/svg" xmlns:xlink="http://www.w3.org/1999/xlink">
<g id="graph0" class="graph" transform="scale(1 1) rotate(0) translate(4 115.3011)">
<title>%3</title>
<polygon fill="#ffffff" stroke="transparent" points="-4,4 -4,-115.3011 705.3457,-115.3011 705.3457,4 -4,4"/>
<text text-anchor="middle" x="350.6728" y="-6.8" font-family="Times,serif" font-size="14.00" fill="#000000">don.hmm</text>
<!-- EXON -->
<g id="node1" class="node">
<title>EXON</title>
<ellipse fill="none" stroke="#000000" cx="34.6682" cy="-58.6329" rx="34.8371" ry="34.8371"/>
<text text-anchor="middle" x="34.6682" y="-54.4329" font-family="Times,serif" font-size="14.00" fill="#000000">EXON</text>
</g>
<!-- EXON&#45;&gt;EXON -->
<g id="edge1" class="edge">
<title>EXON&#45;&gt;EXON</title>
<path fill="none" stroke="#000000" d="M15.1037,-87.3458C13.2404,-100.1914 19.7619,-111.3011 34.6682,-111.3011 45.382,-111.3011 51.7643,-105.5618 53.815,-97.5638"/>
<polygon fill="#000000" stroke="#000000" points="57.3213,-97.4804 54.2326,-87.3458 50.3271,-97.1945 57.3213,-97.4804"/>
</g>
<!-- DON&#45;0 -->
<g id="node2" class="node">
<title>DON&#45;0</title>
<ellipse fill="none" stroke="#000000" cx="141.9692" cy="-58.6329" rx="36.7663" ry="36.7663"/>
<text text-anchor="middle" x="141.9692" y="-54.4329" font-family="Times,serif" font-size="14.00" fill="#000000">DON&#45;0</text>
</g>
<!-- EXON&#45;&gt;DON&#45;0 -->
<g id="edge2" class="edge">
<title>EXON&#45;&gt;DON&#45;0</title>
<path fill="none" stroke="#000000" d="M69.5057,-58.6329C77.5977,-58.6329 86.3434,-58.6329 94.8653,-58.6329"/>
<polygon fill="#000000" stroke="#000000" points="95.0904,-62.133 105.0904,-58.6329 95.0904,-55.133 95.0904,-62.133"/>
</g>
<!-- DON&#45;1 -->
<g id="node3" class="node">
<title>DON&#45;1</title>
<ellipse fill="none" stroke="#000000" cx="251.235" cy="-58.6329" rx="36.7663" ry="36.7663"/>
<text text-anchor="middle" x="251.235" y="-54.4329" font-family="Times,serif" font-size="14.00" fill="#000000">DON&#45;1</text>
</g>
<!-- DON&#45;0&#45;&gt;DON&#45;1 -->
<g id="edge3" class="edge">
<title>DON&#45;0&#45;&gt;DON&#45;1</title>
<path fill="none" stroke="#000000" d="M178.6571,-58.6329C186.8554,-58.6329 195.6601,-58.6329 204.2112,-58.6329"/>
<polygon fill="#000000" stroke="#000000" points="204.458,-62.133 214.458,-58.6329 204.4579,-55.133 204.458,-62.133"/>
</g>
<!-- DON&#45;2 -->
<g id="node4" class="node">
<title>DON&#45;2</title>
<ellipse fill="none" stroke="#000000" cx="360.5008" cy="-58.6329" rx="36.7663" ry="36.7663"/>
<text text-anchor="middle" x="360.5008" y="-54.4329" font-family="Times,serif" font-size="14.00" fill="#000000">DON&#45;2</text>
</g>
<!-- DON&#45;1&#45;&gt;DON&#45;2 -->
<g id="edge4" class="edge">
<title>DON&#45;1&#45;&gt;DON&#45;2</title>
<path fill="none" stroke="#000000" d="M287.9229,-58.6329C296.1212,-58.6329 304.9259,-58.6329 313.477,-58.6329"/>
<polygon fill="#000000" stroke="#000000" points="313.7238,-62.133 323.7238,-58.6329 313.7237,-55.133 313.7238,-62.133"/>
</g>
<!-- DON&#45;3 -->
<g id="node5" class="node">
<title>DON&#45;3</title>
<ellipse fill="none" stroke="#000000" cx="469.7666" cy="-58.6329" rx="36.7663" ry="36.7663"/>
<text text-anchor="middle" x="469.7666" y="-54.4329" font-family="Times,serif" font-size="14.00" fill="#000000">DON&#45;3</text>
</g>
<!-- DON&#45;2&#45;&gt;DON&#45;3 -->
<g id="edge5" class="edge">
<title>DON&#45;2&#45;&gt;DON&#45;3</title>
<path fill="none" stroke="#000000" d="M397.1887,-58.6329C405.387,-58.6329 414.1917,-58.6329 422.7428,-58.6329"/>
<polygon fill="#000000" stroke="#000000" points="422.9896,-62.133 432.9896,-58.6329 422.9895,-55.133 422.9896,-62.133"/>
</g>
<!-- DON&#45;4 -->
<g id="node6" class="node">
<title>DON&#45;4</title>
<ellipse fill="none" stroke="#000000" cx="579.0324" cy="-58.6329" rx="36.7663" ry="36.7663"/>
<text text-anchor="middle" x="579.0324" y="-54.4329" font-family="Times,serif" font-size="14.00" fill="#000000">DON&#45;4</text>
</g>
<!-- DON&#45;3&#45;&gt;DON&#45;4 -->
<g id="edge6" class="edge">
<title>DON&#45;3&#45;&gt;DON&#45;4</title>
<path fill="none" stroke="#000000" d="M506.4545,-58.6329C514.6528,-58.6329 523.4575,-58.6329 532.0086,-58.6329"/>
<polygon fill="#000000" stroke="#000000" points="532.2554,-62.133 542.2554,-58.6329 532.2553,-55.133 532.2554,-62.133"/>
</g>
<!-- INT -->
<g id="node7" class="node">
<title>INT</title>
<ellipse fill="none" stroke="#000000" cx="676.5055" cy="-58.6329" rx="24.6814" ry="24.6814"/>
<text text-anchor="middle" x="676.5055" y="-54.4329" font-family="Times,serif" font-size="14.00" fill="#000000">INT</text>
</g>
<!-- DON&#45;4&#45;&gt;INT -->
<g id="edge7" class="edge">
<title>DON&#45;4&#45;&gt;INT</title>
<path fill="none" stroke="#000000" d="M615.8828,-58.6329C624.2222,-58.6329 633.0562,-58.6329 641.3246,-58.6329"/>
<polygon fill="#000000" stroke="#000000" points="641.4157,-62.133 651.4156,-58.6329 641.4156,-55.133 641.4157,-62.133"/>
</g>
<!-- INT&#45;&gt;INT -->
<g id="edge8" class="edge">
<title>INT&#45;&gt;INT</title>
<path fill="none" stroke="#000000" d="M659.9293,-77.5731C655.6051,-89.752 661.1305,-101.4731 676.5055,-101.4731 687.5563,-101.4731 693.5187,-95.4179 694.3929,-87.4898"/>
<polygon fill="#000000" stroke="#000000" points="697.8624,-87.028 693.0817,-77.5731 690.9228,-87.9456 697.8624,-87.028"/>
</g>
</g>
</svg>
