<?xml version="1.0" encoding="UTF-8" standalone="no"?>
<!DOCTYPE svg PUBLIC "-//W3C//DTD SVG 1.1//EN"
 "http://www.w3.org/Graphics/SVG/1.1/DTD/svg11.dtd">
<!-- Generated by graphviz version 2.40.1 (20161225.0304)
 -->
<!-- Title: %3 Pages: 1 -->
<svg width="1347pt" height="119pt"
 viewBox="0.00 0.00 1347.05 119.30" xmlns="http://www.w3.org/2000/svg" xmlns:xlink="http://www.w3.org/1999/xlink">
<g id="graph0" class="graph" transform="scale(1 1) rotate(0) translate(4 115.3011)">
<title>%3</title>
<polygon fill="#ffffff" stroke="transparent" points="-4,4 -4,-115.3011 1343.0549,-115.3011 1343.0549,4 -4,4"/>
<text text-anchor="middle" x="669.5274" y="-6.8" font-family="Times,serif" font-size="14.00" fill="#000000">exon.hmm</text>
<!-- INTa -->
<g id="node1" class="node">
<title>INTa</title>
<ellipse fill="none" stroke="#000000" cx="28.1478" cy="-58.6329" rx="28.2965" ry="28.2965"/>
<text text-anchor="middle" x="28.1478" y="-54.4329" font-family="Times,serif" font-size="14.00" fill="#000000">INTa</text>
</g>
<!-- INTa&#45;&gt;INTa -->
<g id="edge1" class="edge">
<title>INTa&#45;&gt;INTa</title>
<path fill="none" stroke="#000000" d="M10.6521,-80.9504C7.3862,-93.3564 13.2181,-104.7807 28.1478,-104.7807 38.8785,-104.7807 44.9093,-98.8789 46.2402,-90.9527"/>
<polygon fill="#000000" stroke="#000000" points="49.7329,-90.7242 45.6436,-80.9504 42.7453,-91.1411 49.7329,-90.7242"/>
</g>
<!-- ACC&#45;0 -->
<g id="node2" class="node">
<title>ACC&#45;0</title>
<ellipse fill="none" stroke="#000000" cx="127.9527" cy="-58.6329" rx="35.8147" ry="35.8147"/>
<text text-anchor="middle" x="127.9527" y="-54.4329" font-family="Times,serif" font-size="14.00" fill="#000000">ACC&#45;0</text>
</g>
<!-- INTa&#45;&gt;ACC&#45;0 -->
<g id="edge2" class="edge">
<title>INTa&#45;&gt;ACC&#45;0</title>
<path fill="none" stroke="#000000" d="M56.4809,-58.6329C64.4339,-58.6329 73.2919,-58.6329 81.9894,-58.6329"/>
<polygon fill="#000000" stroke="#000000" points="82.0619,-62.133 92.0618,-58.6329 82.0618,-55.133 82.0619,-62.133"/>
</g>
<!-- ACC&#45;1 -->
<g id="node3" class="node">
<title>ACC&#45;1</title>
<ellipse fill="none" stroke="#000000" cx="235.2667" cy="-58.6329" rx="35.8147" ry="35.8147"/>
<text text-anchor="middle" x="235.2667" y="-54.4329" font-family="Times,serif" font-size="14.00" fill="#000000">ACC&#45;1</text>
</g>
<!-- ACC&#45;0&#45;&gt;ACC&#45;1 -->
<g id="edge3" class="edge">
<title>ACC&#45;0&#45;&gt;ACC&#45;1</title>
<path fill="none" stroke="#000000" d="M163.6867,-58.6329C171.836,-58.6329 180.6085,-58.6329 189.1234,-58.6329"/>
<polygon fill="#000000" stroke="#000000" points="189.3229,-62.133 199.3228,-58.6329 189.3228,-55.133 189.3229,-62.133"/>
</g>
<!-- ACC&#45;2 -->
<g id="node4" class="node">
<title>ACC&#45;2</title>
<ellipse fill="none" stroke="#000000" cx="342.5807" cy="-58.6329" rx="35.8147" ry="35.8147"/>
<text text-anchor="middle" x="342.5807" y="-54.4329" font-family="Times,serif" font-size="14.00" fill="#000000">ACC&#45;2</text>
</g>
<!-- ACC&#45;1&#45;&gt;ACC&#45;2 -->
<g id="edge4" class="edge">
<title>ACC&#45;1&#45;&gt;ACC&#45;2</title>
<path fill="none" stroke="#000000" d="M271.0007,-58.6329C279.15,-58.6329 287.9225,-58.6329 296.4374,-58.6329"/>
<polygon fill="#000000" stroke="#000000" points="296.6369,-62.133 306.6369,-58.6329 296.6368,-55.133 296.6369,-62.133"/>
</g>
<!-- ACC&#45;3 -->
<g id="node5" class="node">
<title>ACC&#45;3</title>
<ellipse fill="none" stroke="#000000" cx="449.8947" cy="-58.6329" rx="35.8147" ry="35.8147"/>
<text text-anchor="middle" x="449.8947" y="-54.4329" font-family="Times,serif" font-size="14.00" fill="#000000">ACC&#45;3</text>
</g>
<!-- ACC&#45;2&#45;&gt;ACC&#45;3 -->
<g id="edge5" class="edge">
<title>ACC&#45;2&#45;&gt;ACC&#45;3</title>
<path fill="none" stroke="#000000" d="M378.3147,-58.6329C386.464,-58.6329 395.2365,-58.6329 403.7514,-58.6329"/>
<polygon fill="#000000" stroke="#000000" points="403.9509,-62.133 413.9509,-58.6329 403.9508,-55.133 403.9509,-62.133"/>
</g>
<!-- ACC&#45;4 -->
<g id="node6" class="node">
<title>ACC&#45;4</title>
<ellipse fill="none" stroke="#000000" cx="557.2088" cy="-58.6329" rx="35.8147" ry="35.8147"/>
<text text-anchor="middle" x="557.2088" y="-54.4329" font-family="Times,serif" font-size="14.00" fill="#000000">ACC&#45;4</text>
</g>
<!-- ACC&#45;3&#45;&gt;ACC&#45;4 -->
<g id="edge6" class="edge">
<title>ACC&#45;3&#45;&gt;ACC&#45;4</title>
<path fill="none" stroke="#000000" d="M485.6287,-58.6329C493.7781,-58.6329 502.5505,-58.6329 511.0655,-58.6329"/>
<polygon fill="#000000" stroke="#000000" points="511.2649,-62.133 521.2649,-58.6329 511.2649,-55.133 511.2649,-62.133"/>
</g>
<!-- EXON -->
<g id="node7" class="node">
<title>EXON</title>
<ellipse fill="none" stroke="#000000" cx="663.5339" cy="-58.6329" rx="34.8371" ry="34.8371"/>
<text text-anchor="middle" x="663.5339" y="-54.4329" font-family="Times,serif" font-size="14.00" fill="#000000">EXON</text>
</g>
<!-- ACC&#45;4&#45;&gt;EXON -->
<g id="edge7" class="edge">
<title>ACC&#45;4&#45;&gt;EXON</title>
<path fill="none" stroke="#000000" d="M592.9093,-58.6329C601.1442,-58.6329 610.008,-58.6329 618.58,-58.6329"/>
<polygon fill="#000000" stroke="#000000" points="618.8295,-62.133 628.8294,-58.6329 618.8294,-55.133 618.8295,-62.133"/>
</g>
<!-- EXON&#45;&gt;EXON -->
<g id="edge8" class="edge">
<title>EXON&#45;&gt;EXON</title>
<path fill="none" stroke="#000000" d="M643.9695,-87.3458C642.1062,-100.1914 648.6277,-111.3011 663.5339,-111.3011 674.2478,-111.3011 680.6301,-105.5618 682.6808,-97.5638"/>
<polygon fill="#000000" stroke="#000000" points="686.187,-97.4804 683.0984,-87.3458 679.1929,-97.1945 686.187,-97.4804"/>
</g>
<!-- DON&#45;0 -->
<g id="node8" class="node">
<title>DON&#45;0</title>
<ellipse fill="none" stroke="#000000" cx="770.835" cy="-58.6329" rx="36.7663" ry="36.7663"/>
<text text-anchor="middle" x="770.835" y="-54.4329" font-family="Times,serif" font-size="14.00" fill="#000000">DON&#45;0</text>
</g>
<!-- EXON&#45;&gt;DON&#45;0 -->
<g id="edge9" class="edge">
<title>EXON&#45;&gt;DON&#45;0</title>
<path fill="none" stroke="#000000" d="M698.3715,-58.6329C706.4634,-58.6329 715.2091,-58.6329 723.7311,-58.6329"/>
<polygon fill="#000000" stroke="#000000" points="723.9562,-62.133 733.9562,-58.6329 723.9561,-55.133 723.9562,-62.133"/>
</g>
<!-- DON&#45;1 -->
<g id="node9" class="node">
<title>DON&#45;1</title>
<ellipse fill="none" stroke="#000000" cx="880.1008" cy="-58.6329" rx="36.7663" ry="36.7663"/>
<text text-anchor="middle" x="880.1008" y="-54.4329" font-family="Times,serif" font-size="14.00" fill="#000000">DON&#45;1</text>
</g>
<!-- DON&#45;0&#45;&gt;DON&#45;1 -->
<g id="edge10" class="edge">
<title>DON&#45;0&#45;&gt;DON&#45;1</title>
<path fill="none" stroke="#000000" d="M807.5229,-58.6329C815.7211,-58.6329 824.5258,-58.6329 833.0769,-58.6329"/>
<polygon fill="#000000" stroke="#000000" points="833.3238,-62.133 843.3237,-58.6329 833.3237,-55.133 833.3238,-62.133"/>
</g>
<!-- DON&#45;2 -->
<g id="node10" class="node">
<title>DON&#45;2</title>
<ellipse fill="none" stroke="#000000" cx="989.3666" cy="-58.6329" rx="36.7663" ry="36.7663"/>
<text text-anchor="middle" x="989.3666" y="-54.4329" font-family="Times,serif" font-size="14.00" fill="#000000">DON&#45;2</text>
</g>
<!-- DON&#45;1&#45;&gt;DON&#45;2 -->
<g id="edge11" class="edge">
<title>DON&#45;1&#45;&gt;DON&#45;2</title>
<path fill="none" stroke="#000000" d="M916.7887,-58.6329C924.9869,-58.6329 933.7916,-58.6329 942.3427,-58.6329"/>
<polygon fill="#000000" stroke="#000000" points="942.5896,-62.133 952.5895,-58.6329 942.5895,-55.133 942.5896,-62.133"/>
</g>
<!-- DON&#45;3 -->
<g id="node11" class="node">
<title>DON&#45;3</title>
<ellipse fill="none" stroke="#000000" cx="1098.6324" cy="-58.6329" rx="36.7663" ry="36.7663"/>
<text text-anchor="middle" x="1098.6324" y="-54.4329" font-family="Times,serif" font-size="14.00" fill="#000000">DON&#45;3</text>
</g>
<!-- DON&#45;2&#45;&gt;DON&#45;3 -->
<g id="edge12" class="edge">
<title>DON&#45;2&#45;&gt;DON&#45;3</title>
<path fill="none" stroke="#000000" d="M1026.0545,-58.6329C1034.2527,-58.6329 1043.0574,-58.6329 1051.6085,-58.6329"/>
<polygon fill="#000000" stroke="#000000" points="1051.8554,-62.133 1061.8553,-58.6329 1051.8553,-55.133 1051.8554,-62.133"/>
</g>
<!-- DON&#45;4 -->
<g id="node12" class="node">
<title>DON&#45;4</title>
<ellipse fill="none" stroke="#000000" cx="1207.8982" cy="-58.6329" rx="36.7663" ry="36.7663"/>
<text text-anchor="middle" x="1207.8982" y="-54.4329" font-family="Times,serif" font-size="14.00" fill="#000000">DON&#45;4</text>
</g>
<!-- DON&#45;3&#45;&gt;DON&#45;4 -->
<g id="edge13" class="edge">
<title>DON&#45;3&#45;&gt;DON&#45;4</title>
<path fill="none" stroke="#000000" d="M1135.3203,-58.6329C1143.5185,-58.6329 1152.3232,-58.6329 1160.8743,-58.6329"/>
<polygon fill="#000000" stroke="#000000" points="1161.1212,-62.133 1171.1211,-58.6329 1161.1211,-55.133 1161.1212,-62.133"/>
</g>
<!-- INTb -->
<g id="node13" class="node">
<title>INTb</title>
<ellipse fill="none" stroke="#000000" cx="1309.793" cy="-58.6329" rx="29.0257" ry="29.0257"/>
<text text-anchor="middle" x="1309.793" y="-54.4329" font-family="Times,serif" font-size="14.00" fill="#000000">INTb</text>
</g>
<!-- DON&#45;4&#45;&gt;INTb -->
<g id="edge14" class="edge">
<title>DON&#45;4&#45;&gt;INTb</title>
<path fill="none" stroke="#000000" d="M1244.6846,-58.6329C1253.0331,-58.6329 1261.9327,-58.6329 1270.3851,-58.6329"/>
<polygon fill="#000000" stroke="#000000" points="1270.4063,-62.133 1280.4063,-58.6329 1270.4062,-55.133 1270.4063,-62.133"/>
</g>
<!-- INTb&#45;&gt;INTb -->
<g id="edge15" class="edge">
<title>INTb&#45;&gt;INTb</title>
<path fill="none" stroke="#000000" d="M1291.8166,-81.9773C1288.7618,-94.4928 1294.7539,-105.8948 1309.793,-105.8948 1320.6023,-105.8948 1326.738,-100.0045 1328.2,-92.0441"/>
<polygon fill="#000000" stroke="#000000" points="1331.6936,-91.8186 1327.7694,-81.9773 1324.7,-92.1178 1331.6936,-91.8186"/>
</g>
</g>
</svg>
