<?xml version="1.0" encoding="UTF-8" standalone="no"?>
<!DOCTYPE svg PUBLIC "-//W3C//DTD SVG 1.1//EN"
 "http://www.w3.org/Graphics/SVG/1.1/DTD/svg11.dtd">
<!-- Generated by graphviz version 2.40.1 (20161225.0304)
 -->
<!-- Title: %3 Pages: 1 -->
<svg width="223pt" height="1300pt"
 viewBox="0.00 0.00 223.30 1300.24" xmlns="http://www.w3.org/2000/svg" xmlns:xlink="http://www.w3.org/1999/xlink">
<g id="graph0" class="graph" transform="scale(1 1) rotate(0) translate(4 1296.2354)">
<title>%3</title>
<polygon fill="#ffffff" stroke="transparent" points="-4,4 -4,-1296.2354 219.3011,-1296.2354 219.3011,4 -4,4"/>
<!-- ACC&#45;0 -->
<g id="node1" class="node">
<title>ACC&#45;0</title>
<ellipse fill="none" stroke="#000000" cx="36.6329" cy="-1256.5784" rx="35.8147" ry="35.8147"/>
<text text-anchor="middle" x="36.6329" y="-1252.3784" font-family="Times,serif" font-size="14.00" fill="#000000">ACC&#45;0</text>
</g>
<!-- ACC&#45;1 -->
<g id="node2" class="node">
<title>ACC&#45;1</title>
<ellipse fill="none" stroke="#000000" cx="36.6329" cy="-1135.2644" rx="35.8147" ry="35.8147"/>
<text text-anchor="middle" x="36.6329" y="-1131.0644" font-family="Times,serif" font-size="14.00" fill="#000000">ACC&#45;1</text>
</g>
<!-- ACC&#45;0&#45;&gt;ACC&#45;1 -->
<g id="edge1" class="edge">
<title>ACC&#45;0&#45;&gt;ACC&#45;1</title>
<path fill="none" stroke="#000000" d="M36.6329,-1220.8363C36.6329,-1208.483 36.6329,-1194.4608 36.6329,-1181.3943"/>
<polygon fill="#000000" stroke="#000000" points="40.133,-1181.1702 36.6329,-1171.1702 33.133,-1181.1702 40.133,-1181.1702"/>
<text text-anchor="middle" x="41.8829" y="-1191.7214" font-family="Times,serif" font-size="14.00" fill="#000000"> 1</text>
</g>
<!-- ACC&#45;2 -->
<g id="node3" class="node">
<title>ACC&#45;2</title>
<ellipse fill="none" stroke="#000000" cx="36.6329" cy="-1013.9504" rx="35.8147" ry="35.8147"/>
<text text-anchor="middle" x="36.6329" y="-1009.7504" font-family="Times,serif" font-size="14.00" fill="#000000">ACC&#45;2</text>
</g>
<!-- ACC&#45;1&#45;&gt;ACC&#45;2 -->
<g id="edge2" class="edge">
<title>ACC&#45;1&#45;&gt;ACC&#45;2</title>
<path fill="none" stroke="#000000" d="M36.6329,-1099.5223C36.6329,-1087.1689 36.6329,-1073.1468 36.6329,-1060.0803"/>
<polygon fill="#000000" stroke="#000000" points="40.133,-1059.8561 36.6329,-1049.8562 33.133,-1059.8562 40.133,-1059.8561"/>
<text text-anchor="middle" x="41.8829" y="-1070.4074" font-family="Times,serif" font-size="14.00" fill="#000000"> 1</text>
</g>
<!-- ACC&#45;3 -->
<g id="node4" class="node">
<title>ACC&#45;3</title>
<ellipse fill="none" stroke="#000000" cx="36.6329" cy="-892.6364" rx="35.8147" ry="35.8147"/>
<text text-anchor="middle" x="36.6329" y="-888.4364" font-family="Times,serif" font-size="14.00" fill="#000000">ACC&#45;3</text>
</g>
<!-- ACC&#45;2&#45;&gt;ACC&#45;3 -->
<g id="edge3" class="edge">
<title>ACC&#45;2&#45;&gt;ACC&#45;3</title>
<path fill="none" stroke="#000000" d="M36.6329,-978.2083C36.6329,-965.8549 36.6329,-951.8328 36.6329,-938.7663"/>
<polygon fill="#000000" stroke="#000000" points="40.133,-938.5421 36.6329,-928.5422 33.133,-938.5422 40.133,-938.5421"/>
<text text-anchor="middle" x="41.8829" y="-949.0934" font-family="Times,serif" font-size="14.00" fill="#000000"> 1</text>
</g>
<!-- ACC&#45;4 -->
<g id="node5" class="node">
<title>ACC&#45;4</title>
<ellipse fill="none" stroke="#000000" cx="36.6329" cy="-771.3223" rx="35.8147" ry="35.8147"/>
<text text-anchor="middle" x="36.6329" y="-767.1223" font-family="Times,serif" font-size="14.00" fill="#000000">ACC&#45;4</text>
</g>
<!-- ACC&#45;3&#45;&gt;ACC&#45;4 -->
<g id="edge4" class="edge">
<title>ACC&#45;3&#45;&gt;ACC&#45;4</title>
<path fill="none" stroke="#000000" d="M36.6329,-856.8943C36.6329,-844.5409 36.6329,-830.5188 36.6329,-817.4522"/>
<polygon fill="#000000" stroke="#000000" points="40.133,-817.2281 36.6329,-807.2281 33.133,-817.2282 40.133,-817.2281"/>
<text text-anchor="middle" x="41.8829" y="-827.7793" font-family="Times,serif" font-size="14.00" fill="#000000"> 1</text>
</g>
<!-- EXON -->
<g id="node6" class="node">
<title>EXON</title>
<ellipse fill="none" stroke="#000000" cx="36.6329" cy="-650.9972" rx="34.8371" ry="34.8371"/>
<text text-anchor="middle" x="36.6329" y="-646.7972" font-family="Times,serif" font-size="14.00" fill="#000000">EXON</text>
</g>
<!-- ACC&#45;4&#45;&gt;EXON -->
<g id="edge5" class="edge">
<title>ACC&#45;4&#45;&gt;EXON</title>
<path fill="none" stroke="#000000" d="M36.6329,-735.5466C36.6329,-723.193 36.6329,-709.1881 36.6329,-696.1808"/>
<polygon fill="#000000" stroke="#000000" points="40.133,-696.0136 36.6329,-686.0136 33.133,-696.0137 40.133,-696.0136"/>
<text text-anchor="middle" x="41.8829" y="-706.4653" font-family="Times,serif" font-size="14.00" fill="#000000"> 1</text>
</g>
<!-- EXON&#45;&gt;EXON -->
<g id="edge6" class="edge">
<title>EXON&#45;&gt;EXON</title>
<path fill="none" stroke="#000000" d="M69.8073,-661.8715C80.6597,-661.8153 89.3011,-658.1905 89.3011,-650.9972 89.3011,-646.2765 85.5795,-643.0927 79.9538,-641.4458"/>
<polygon fill="#000000" stroke="#000000" points="80.1759,-637.9452 69.8073,-640.1228 79.2708,-644.8865 80.1759,-637.9452"/>
<text text-anchor="middle" x="152.3011" y="-646.7972" font-family="Times,serif" font-size="14.00" fill="#000000"> 0.9953674355098259</text>
</g>
<!-- DON&#45;0 -->
<g id="node7" class="node">
<title>DON&#45;0</title>
<ellipse fill="none" stroke="#000000" cx="36.6329" cy="-529.6961" rx="36.7663" ry="36.7663"/>
<text text-anchor="middle" x="36.6329" y="-525.4961" font-family="Times,serif" font-size="14.00" fill="#000000">DON&#45;0</text>
</g>
<!-- EXON&#45;&gt;DON&#45;0 -->
<g id="edge7" class="edge">
<title>EXON&#45;&gt;DON&#45;0</title>
<path fill="none" stroke="#000000" d="M36.6329,-616.2371C36.6329,-603.9737 36.6329,-589.9716 36.6329,-576.8561"/>
<polygon fill="#000000" stroke="#000000" points="40.133,-576.578 36.6329,-566.578 33.133,-576.5781 40.133,-576.578"/>
<text text-anchor="middle" x="106.6329" y="-587.129" font-family="Times,serif" font-size="14.00" fill="#000000"> 0.004632564490174087</text>
</g>
<!-- DON&#45;1 -->
<g id="node8" class="node">
<title>DON&#45;1</title>
<ellipse fill="none" stroke="#000000" cx="36.6329" cy="-406.4303" rx="36.7663" ry="36.7663"/>
<text text-anchor="middle" x="36.6329" y="-402.2303" font-family="Times,serif" font-size="14.00" fill="#000000">DON&#45;1</text>
</g>
<!-- DON&#45;0&#45;&gt;DON&#45;1 -->
<g id="edge8" class="edge">
<title>DON&#45;0&#45;&gt;DON&#45;1</title>
<path fill="none" stroke="#000000" d="M36.6329,-493.046C36.6329,-480.6145 36.6329,-466.5507 36.6329,-453.4266"/>
<polygon fill="#000000" stroke="#000000" points="40.133,-453.152 36.6329,-443.152 33.133,-453.152 40.133,-453.152"/>
<text text-anchor="middle" x="41.8829" y="-463.8632" font-family="Times,serif" font-size="14.00" fill="#000000"> 1</text>
</g>
<!-- DON&#45;2 -->
<g id="node9" class="node">
<title>DON&#45;2</title>
<ellipse fill="none" stroke="#000000" cx="36.6329" cy="-283.1645" rx="36.7663" ry="36.7663"/>
<text text-anchor="middle" x="36.6329" y="-278.9645" font-family="Times,serif" font-size="14.00" fill="#000000">DON&#45;2</text>
</g>
<!-- DON&#45;1&#45;&gt;DON&#45;2 -->
<g id="edge9" class="edge">
<title>DON&#45;1&#45;&gt;DON&#45;2</title>
<path fill="none" stroke="#000000" d="M36.6329,-369.7802C36.6329,-357.3487 36.6329,-343.2849 36.6329,-330.1608"/>
<polygon fill="#000000" stroke="#000000" points="40.133,-329.8862 36.6329,-319.8862 33.133,-329.8862 40.133,-329.8862"/>
<text text-anchor="middle" x="41.8829" y="-340.5974" font-family="Times,serif" font-size="14.00" fill="#000000"> 1</text>
</g>
<!-- DON&#45;3 -->
<g id="node10" class="node">
<title>DON&#45;3</title>
<ellipse fill="none" stroke="#000000" cx="36.6329" cy="-159.8987" rx="36.7663" ry="36.7663"/>
<text text-anchor="middle" x="36.6329" y="-155.6987" font-family="Times,serif" font-size="14.00" fill="#000000">DON&#45;3</text>
</g>
<!-- DON&#45;2&#45;&gt;DON&#45;3 -->
<g id="edge10" class="edge">
<title>DON&#45;2&#45;&gt;DON&#45;3</title>
<path fill="none" stroke="#000000" d="M36.6329,-246.5144C36.6329,-234.0829 36.6329,-220.0191 36.6329,-206.895"/>
<polygon fill="#000000" stroke="#000000" points="40.133,-206.6204 36.6329,-196.6204 33.133,-206.6204 40.133,-206.6204"/>
<text text-anchor="middle" x="41.8829" y="-217.3316" font-family="Times,serif" font-size="14.00" fill="#000000"> 1</text>
</g>
<!-- DON&#45;4 -->
<g id="node11" class="node">
<title>DON&#45;4</title>
<ellipse fill="none" stroke="#000000" cx="36.6329" cy="-36.6329" rx="36.7663" ry="36.7663"/>
<text text-anchor="middle" x="36.6329" y="-32.4329" font-family="Times,serif" font-size="14.00" fill="#000000">DON&#45;4</text>
</g>
<!-- DON&#45;3&#45;&gt;DON&#45;4 -->
<g id="edge11" class="edge">
<title>DON&#45;3&#45;&gt;DON&#45;4</title>
<path fill="none" stroke="#000000" d="M36.6329,-123.2486C36.6329,-110.8171 36.6329,-96.7533 36.6329,-83.6292"/>
<polygon fill="#000000" stroke="#000000" points="40.133,-83.3546 36.6329,-73.3546 33.133,-83.3546 40.133,-83.3546"/>
<text text-anchor="middle" x="41.8829" y="-94.0658" font-family="Times,serif" font-size="14.00" fill="#000000"> 1</text>
</g>
</g>
</svg>
