<?xml version="1.0" encoding="UTF-8" standalone="no"?>
<!DOCTYPE svg PUBLIC "-//W3C//DTD SVG 1.1//EN"
 "http://www.w3.org/Graphics/SVG/1.1/DTD/svg11.dtd">
<!-- Generated by graphviz version 2.40.1 (20161225.0304)
 -->
<!-- Title: %3 Pages: 1 -->
<svg width="1323pt" height="113pt"
 viewBox="0.00 0.00 1322.77 112.91" xmlns="http://www.w3.org/2000/svg" xmlns:xlink="http://www.w3.org/1999/xlink">
<g id="graph0" class="graph" transform="scale(1 1) rotate(0) translate(4 108.9146)">
<title>%3</title>
<polygon fill="#ffffff" stroke="transparent" points="-4,4 -4,-108.9146 1318.7699,-108.9146 1318.7699,4 -4,4"/>
<text text-anchor="middle" x="657.385" y="-6.8" font-family="Times,serif" font-size="14.00" fill="#000000">intron.hmm</text>
<!-- EXP -->
<g id="node1" class="node">
<title>EXP</title>
<ellipse fill="none" stroke="#000000" cx="26.8135" cy="-58.6329" rx="26.6284" ry="26.6284"/>
<text text-anchor="middle" x="26.8135" y="-54.4329" font-family="Times,serif" font-size="14.00" fill="#000000">EXP</text>
</g>
<!-- EXP&#45;&gt;EXP -->
<g id="edge1" class="edge">
<title>EXP&#45;&gt;EXP</title>
<path fill="none" stroke="#000000" d="M9.587,-79.3767C5.7589,-91.7762 11.501,-103.4464 26.8135,-103.4464 37.8194,-103.4464 43.8812,-97.4176 44.999,-89.4223"/>
<polygon fill="#000000" stroke="#000000" points="48.4746,-88.9988 44.0401,-79.3767 41.5063,-89.664 48.4746,-88.9988"/>
</g>
<!-- DON&#45;0 -->
<g id="node2" class="node">
<title>DON&#45;0</title>
<ellipse fill="none" stroke="#000000" cx="126.26" cy="-58.6329" rx="36.7663" ry="36.7663"/>
<text text-anchor="middle" x="126.26" y="-54.4329" font-family="Times,serif" font-size="14.00" fill="#000000">DON&#45;0</text>
</g>
<!-- EXP&#45;&gt;DON&#45;0 -->
<g id="edge2" class="edge">
<title>EXP&#45;&gt;DON&#45;0</title>
<path fill="none" stroke="#000000" d="M53.7252,-58.6329C61.6633,-58.6329 70.5917,-58.6329 79.3999,-58.6329"/>
<polygon fill="#000000" stroke="#000000" points="79.6182,-62.133 89.6182,-58.6329 79.6182,-55.133 79.6182,-62.133"/>
</g>
<!-- DON&#45;1 -->
<g id="node3" class="node">
<title>DON&#45;1</title>
<ellipse fill="none" stroke="#000000" cx="235.5258" cy="-58.6329" rx="36.7663" ry="36.7663"/>
<text text-anchor="middle" x="235.5258" y="-54.4329" font-family="Times,serif" font-size="14.00" fill="#000000">DON&#45;1</text>
</g>
<!-- DON&#45;0&#45;&gt;DON&#45;1 -->
<g id="edge3" class="edge">
<title>DON&#45;0&#45;&gt;DON&#45;1</title>
<path fill="none" stroke="#000000" d="M162.9479,-58.6329C171.1461,-58.6329 179.9508,-58.6329 188.5019,-58.6329"/>
<polygon fill="#000000" stroke="#000000" points="188.7488,-62.133 198.7487,-58.6329 188.7487,-55.133 188.7488,-62.133"/>
</g>
<!-- DON&#45;2 -->
<g id="node4" class="node">
<title>DON&#45;2</title>
<ellipse fill="none" stroke="#000000" cx="344.7916" cy="-58.6329" rx="36.7663" ry="36.7663"/>
<text text-anchor="middle" x="344.7916" y="-54.4329" font-family="Times,serif" font-size="14.00" fill="#000000">DON&#45;2</text>
</g>
<!-- DON&#45;1&#45;&gt;DON&#45;2 -->
<g id="edge4" class="edge">
<title>DON&#45;1&#45;&gt;DON&#45;2</title>
<path fill="none" stroke="#000000" d="M272.2137,-58.6329C280.4119,-58.6329 289.2166,-58.6329 297.7677,-58.6329"/>
<polygon fill="#000000" stroke="#000000" points="298.0146,-62.133 308.0145,-58.6329 298.0145,-55.133 298.0146,-62.133"/>
</g>
<!-- DON&#45;3 -->
<g id="node5" class="node">
<title>DON&#45;3</title>
<ellipse fill="none" stroke="#000000" cx="454.0574" cy="-58.6329" rx="36.7663" ry="36.7663"/>
<text text-anchor="middle" x="454.0574" y="-54.4329" font-family="Times,serif" font-size="14.00" fill="#000000">DON&#45;3</text>
</g>
<!-- DON&#45;2&#45;&gt;DON&#45;3 -->
<g id="edge5" class="edge">
<title>DON&#45;2&#45;&gt;DON&#45;3</title>
<path fill="none" stroke="#000000" d="M381.4795,-58.6329C389.6777,-58.6329 398.4824,-58.6329 407.0335,-58.6329"/>
<polygon fill="#000000" stroke="#000000" points="407.2804,-62.133 417.2803,-58.6329 407.2803,-55.133 407.2804,-62.133"/>
</g>
<!-- DON&#45;4 -->
<g id="node6" class="node">
<title>DON&#45;4</title>
<ellipse fill="none" stroke="#000000" cx="563.3232" cy="-58.6329" rx="36.7663" ry="36.7663"/>
<text text-anchor="middle" x="563.3232" y="-54.4329" font-family="Times,serif" font-size="14.00" fill="#000000">DON&#45;4</text>
</g>
<!-- DON&#45;3&#45;&gt;DON&#45;4 -->
<g id="edge6" class="edge">
<title>DON&#45;3&#45;&gt;DON&#45;4</title>
<path fill="none" stroke="#000000" d="M490.7453,-58.6329C498.9435,-58.6329 507.7482,-58.6329 516.2993,-58.6329"/>
<polygon fill="#000000" stroke="#000000" points="516.5462,-62.133 526.5461,-58.6329 516.5461,-55.133 516.5462,-62.133"/>
</g>
<!-- INT -->
<g id="node7" class="node">
<title>INT</title>
<ellipse fill="none" stroke="#000000" cx="660.7963" cy="-58.6329" rx="24.6814" ry="24.6814"/>
<text text-anchor="middle" x="660.7963" y="-54.4329" font-family="Times,serif" font-size="14.00" fill="#000000">INT</text>
</g>
<!-- DON&#45;4&#45;&gt;INT -->
<g id="edge7" class="edge">
<title>DON&#45;4&#45;&gt;INT</title>
<path fill="none" stroke="#000000" d="M600.1736,-58.6329C608.513,-58.6329 617.3469,-58.6329 625.6153,-58.6329"/>
<polygon fill="#000000" stroke="#000000" points="625.7064,-62.133 635.7064,-58.6329 625.7064,-55.133 625.7064,-62.133"/>
</g>
<!-- INT&#45;&gt;INT -->
<g id="edge8" class="edge">
<title>INT&#45;&gt;INT</title>
<path fill="none" stroke="#000000" d="M644.2201,-77.5731C639.8959,-89.752 645.4213,-101.4731 660.7963,-101.4731 671.847,-101.4731 677.8095,-95.4179 678.6836,-87.4898"/>
<polygon fill="#000000" stroke="#000000" points="682.1531,-87.028 677.3724,-77.5731 675.2135,-87.9456 682.1531,-87.028"/>
</g>
<!-- ACC&#45;0 -->
<g id="node8" class="node">
<title>ACC&#45;0</title>
<ellipse fill="none" stroke="#000000" cx="757.2934" cy="-58.6329" rx="35.8147" ry="35.8147"/>
<text text-anchor="middle" x="757.2934" y="-54.4329" font-family="Times,serif" font-size="14.00" fill="#000000">ACC&#45;0</text>
</g>
<!-- INT&#45;&gt;ACC&#45;0 -->
<g id="edge9" class="edge">
<title>INT&#45;&gt;ACC&#45;0</title>
<path fill="none" stroke="#000000" d="M685.6467,-58.6329C693.5135,-58.6329 702.4753,-58.6329 711.334,-58.6329"/>
<polygon fill="#000000" stroke="#000000" points="711.6142,-62.133 721.6142,-58.6329 711.6142,-55.133 711.6142,-62.133"/>
</g>
<!-- ACC&#45;1 -->
<g id="node9" class="node">
<title>ACC&#45;1</title>
<ellipse fill="none" stroke="#000000" cx="864.6075" cy="-58.6329" rx="35.8147" ry="35.8147"/>
<text text-anchor="middle" x="864.6075" y="-54.4329" font-family="Times,serif" font-size="14.00" fill="#000000">ACC&#45;1</text>
</g>
<!-- ACC&#45;0&#45;&gt;ACC&#45;1 -->
<g id="edge10" class="edge">
<title>ACC&#45;0&#45;&gt;ACC&#45;1</title>
<path fill="none" stroke="#000000" d="M793.0274,-58.6329C801.1767,-58.6329 809.9492,-58.6329 818.4642,-58.6329"/>
<polygon fill="#000000" stroke="#000000" points="818.6636,-62.133 828.6636,-58.6329 818.6636,-55.133 818.6636,-62.133"/>
</g>
<!-- ACC&#45;2 -->
<g id="node10" class="node">
<title>ACC&#45;2</title>
<ellipse fill="none" stroke="#000000" cx="971.9215" cy="-58.6329" rx="35.8147" ry="35.8147"/>
<text text-anchor="middle" x="971.9215" y="-54.4329" font-family="Times,serif" font-size="14.00" fill="#000000">ACC&#45;2</text>
</g>
<!-- ACC&#45;1&#45;&gt;ACC&#45;2 -->
<g id="edge11" class="edge">
<title>ACC&#45;1&#45;&gt;ACC&#45;2</title>
<path fill="none" stroke="#000000" d="M900.3415,-58.6329C908.4908,-58.6329 917.2632,-58.6329 925.7782,-58.6329"/>
<polygon fill="#000000" stroke="#000000" points="925.9776,-62.133 935.9776,-58.6329 925.9776,-55.133 925.9776,-62.133"/>
</g>
<!-- ACC&#45;3 -->
<g id="node11" class="node">
<title>ACC&#45;3</title>
<ellipse fill="none" stroke="#000000" cx="1079.2355" cy="-58.6329" rx="35.8147" ry="35.8147"/>
<text text-anchor="middle" x="1079.2355" y="-54.4329" font-family="Times,serif" font-size="14.00" fill="#000000">ACC&#45;3</text>
</g>
<!-- ACC&#45;2&#45;&gt;ACC&#45;3 -->
<g id="edge12" class="edge">
<title>ACC&#45;2&#45;&gt;ACC&#45;3</title>
<path fill="none" stroke="#000000" d="M1007.6555,-58.6329C1015.8048,-58.6329 1024.5773,-58.6329 1033.0922,-58.6329"/>
<polygon fill="#000000" stroke="#000000" points="1033.2917,-62.133 1043.2916,-58.6329 1033.2916,-55.133 1033.2917,-62.133"/>
</g>
<!-- ACC&#45;4 -->
<g id="node12" class="node">
<title>ACC&#45;4</title>
<ellipse fill="none" stroke="#000000" cx="1186.5495" cy="-58.6329" rx="35.8147" ry="35.8147"/>
<text text-anchor="middle" x="1186.5495" y="-54.4329" font-family="Times,serif" font-size="14.00" fill="#000000">ACC&#45;4</text>
</g>
<!-- ACC&#45;3&#45;&gt;ACC&#45;4 -->
<g id="edge13" class="edge">
<title>ACC&#45;3&#45;&gt;ACC&#45;4</title>
<path fill="none" stroke="#000000" d="M1114.9695,-58.6329C1123.1188,-58.6329 1131.8913,-58.6329 1140.4062,-58.6329"/>
<polygon fill="#000000" stroke="#000000" points="1140.6057,-62.133 1150.6056,-58.6329 1140.6056,-55.133 1140.6057,-62.133"/>
</g>
<!-- EXN -->
<g id="node13" class="node">
<title>EXN</title>
<ellipse fill="none" stroke="#000000" cx="1286.4882" cy="-58.6329" rx="28.0651" ry="28.0651"/>
<text text-anchor="middle" x="1286.4882" y="-54.4329" font-family="Times,serif" font-size="14.00" fill="#000000">EXN</text>
</g>
<!-- ACC&#45;4&#45;&gt;EXN -->
<g id="edge14" class="edge">
<title>ACC&#45;4&#45;&gt;EXN</title>
<path fill="none" stroke="#000000" d="M1222.3474,-58.6329C1230.7093,-58.6329 1239.6484,-58.6329 1248.117,-58.6329"/>
<polygon fill="#000000" stroke="#000000" points="1248.1432,-62.133 1258.1432,-58.6329 1248.1431,-55.133 1248.1432,-62.133"/>
</g>
<!-- EXN&#45;&gt;EXN -->
<g id="edge15" class="edge">
<title>EXN&#45;&gt;EXN</title>
<path fill="none" stroke="#000000" d="M1268.9925,-81.0151C1265.7266,-93.4572 1271.5585,-104.9146 1286.4882,-104.9146 1297.2189,-104.9146 1303.2497,-98.9957 1304.5806,-91.0464"/>
<polygon fill="#000000" stroke="#000000" points="1308.0716,-90.7896 1303.9839,-81.0151 1301.0839,-91.2053 1308.0716,-90.7896"/>
</g>
</g>
</svg>
