<?xml version="1.0" encoding="UTF-8" standalone="no"?>
<!DOCTYPE svg PUBLIC "-//W3C//DTD SVG 1.1//EN"
 "http://www.w3.org/Graphics/SVG/1.1/DTD/svg11.dtd">
<!-- Generated by graphviz version 2.40.1 (20161225.0304)
 -->
<!-- Title: %3 Pages: 1 -->
<svg width="1683pt" height="136pt"
 viewBox="0.00 0.00 1683.07 135.62" xmlns="http://www.w3.org/2000/svg" xmlns:xlink="http://www.w3.org/1999/xlink">
<g id="graph0" class="graph" transform="scale(1 1) rotate(0) translate(4 131.6199)">
<title>%3</title>
<polygon fill="#ffffff" stroke="transparent" points="-4,4 -4,-131.6199 1679.074,-131.6199 1679.074,4 -4,4"/>
<text text-anchor="middle" x="837.537" y="-6.8" font-family="Times,serif" font-size="14.00" fill="#000000">mRNA2.hmm</text>
<!-- UTR5 -->
<g id="node1" class="node">
<title>UTR5</title>
<ellipse fill="none" stroke="#000000" cx="32.2155" cy="-60.9431" rx="32.4324" ry="32.4324"/>
<text text-anchor="middle" x="32.2155" y="-56.7431" font-family="Times,serif" font-size="14.00" fill="#000000">UTR5</text>
</g>
<!-- UTR5&#45;&gt;UTR5 -->
<g id="edge1" class="edge">
<title>UTR5&#45;&gt;UTR5</title>
<path fill="none" stroke="#000000" d="M13.5574,-87.2946C11.2539,-99.9696 17.4733,-111.1586 32.2155,-111.1586 42.8114,-111.1586 49.0045,-105.3783 50.7946,-97.4206"/>
<polygon fill="#000000" stroke="#000000" points="54.2954,-97.3216 50.8736,-87.2946 47.2956,-97.267 54.2954,-97.3216"/>
</g>
<!-- KOZ&#45;0 -->
<g id="node2" class="node">
<title>KOZ&#45;0</title>
<ellipse fill="none" stroke="#000000" cx="136.0793" cy="-60.9431" rx="35.7974" ry="35.7974"/>
<text text-anchor="middle" x="136.0793" y="-56.7431" font-family="Times,serif" font-size="14.00" fill="#000000">KOZ&#45;0</text>
</g>
<!-- UTR5&#45;&gt;KOZ&#45;0 -->
<g id="edge2" class="edge">
<title>UTR5&#45;&gt;KOZ&#45;0</title>
<path fill="none" stroke="#000000" d="M64.5093,-60.9431C72.6416,-60.9431 81.5273,-60.9431 90.186,-60.9431"/>
<polygon fill="#000000" stroke="#000000" points="90.1876,-64.4432 100.1876,-60.9431 90.1875,-57.4432 90.1876,-64.4432"/>
</g>
<!-- KOZ&#45;1 -->
<g id="node3" class="node">
<title>KOZ&#45;1</title>
<ellipse fill="none" stroke="#000000" cx="243.3761" cy="-60.9431" rx="35.7974" ry="35.7974"/>
<text text-anchor="middle" x="243.3761" y="-56.7431" font-family="Times,serif" font-size="14.00" fill="#000000">KOZ&#45;1</text>
</g>
<!-- KOZ&#45;0&#45;&gt;KOZ&#45;1 -->
<g id="edge3" class="edge">
<title>KOZ&#45;0&#45;&gt;KOZ&#45;1</title>
<path fill="none" stroke="#000000" d="M171.8076,-60.9431C179.9556,-60.9431 188.7266,-60.9431 197.2402,-60.9431"/>
<polygon fill="#000000" stroke="#000000" points="197.438,-64.4432 207.438,-60.9431 197.438,-57.4432 197.438,-64.4432"/>
</g>
<!-- KOZ&#45;2 -->
<g id="node4" class="node">
<title>KOZ&#45;2</title>
<ellipse fill="none" stroke="#000000" cx="350.6728" cy="-60.9431" rx="35.7974" ry="35.7974"/>
<text text-anchor="middle" x="350.6728" y="-56.7431" font-family="Times,serif" font-size="14.00" fill="#000000">KOZ&#45;2</text>
</g>
<!-- KOZ&#45;1&#45;&gt;KOZ&#45;2 -->
<g id="edge4" class="edge">
<title>KOZ&#45;1&#45;&gt;KOZ&#45;2</title>
<path fill="none" stroke="#000000" d="M279.1044,-60.9431C287.2523,-60.9431 296.0234,-60.9431 304.537,-60.9431"/>
<polygon fill="#000000" stroke="#000000" points="304.7348,-64.4432 314.7348,-60.9431 304.7347,-57.4432 304.7348,-64.4432"/>
</g>
<!-- KOZ&#45;3 -->
<g id="node5" class="node">
<title>KOZ&#45;3</title>
<ellipse fill="none" stroke="#000000" cx="457.9696" cy="-60.9431" rx="35.7974" ry="35.7974"/>
<text text-anchor="middle" x="457.9696" y="-56.7431" font-family="Times,serif" font-size="14.00" fill="#000000">KOZ&#45;3</text>
</g>
<!-- KOZ&#45;2&#45;&gt;KOZ&#45;3 -->
<g id="edge5" class="edge">
<title>KOZ&#45;2&#45;&gt;KOZ&#45;3</title>
<path fill="none" stroke="#000000" d="M386.4011,-60.9431C394.5491,-60.9431 403.3201,-60.9431 411.8337,-60.9431"/>
<polygon fill="#000000" stroke="#000000" points="412.0315,-64.4432 422.0315,-60.9431 412.0315,-57.4432 412.0315,-64.4432"/>
</g>
<!-- KOZ&#45;4 -->
<g id="node6" class="node">
<title>KOZ&#45;4</title>
<ellipse fill="none" stroke="#000000" cx="565.2663" cy="-60.9431" rx="35.7974" ry="35.7974"/>
<text text-anchor="middle" x="565.2663" y="-56.7431" font-family="Times,serif" font-size="14.00" fill="#000000">KOZ&#45;4</text>
</g>
<!-- KOZ&#45;3&#45;&gt;KOZ&#45;4 -->
<g id="edge6" class="edge">
<title>KOZ&#45;3&#45;&gt;KOZ&#45;4</title>
<path fill="none" stroke="#000000" d="M493.6978,-60.9431C501.8458,-60.9431 510.6169,-60.9431 519.1305,-60.9431"/>
<polygon fill="#000000" stroke="#000000" points="519.3283,-64.4432 529.3282,-60.9431 519.3282,-57.4432 519.3283,-64.4432"/>
</g>
<!-- ATG&#45;0 -->
<g id="node7" class="node">
<title>ATG&#45;0</title>
<ellipse fill="none" stroke="#000000" cx="671.5829" cy="-60.9431" rx="34.8371" ry="34.8371"/>
<text text-anchor="middle" x="671.5829" y="-56.7431" font-family="Times,serif" font-size="14.00" fill="#000000">ATG&#45;0</text>
</g>
<!-- KOZ&#45;4&#45;&gt;ATG&#45;0 -->
<g id="edge7" class="edge">
<title>KOZ&#45;4&#45;&gt;ATG&#45;0</title>
<path fill="none" stroke="#000000" d="M600.964,-60.9431C609.1982,-60.9431 618.0613,-60.9431 626.6326,-60.9431"/>
<polygon fill="#000000" stroke="#000000" points="626.8812,-64.4432 636.8812,-60.9431 626.8812,-57.4432 626.8812,-64.4432"/>
</g>
<!-- ATG&#45;1 -->
<g id="node8" class="node">
<title>ATG&#45;1</title>
<ellipse fill="none" stroke="#000000" cx="776.9192" cy="-60.9431" rx="34.8371" ry="34.8371"/>
<text text-anchor="middle" x="776.9192" y="-56.7431" font-family="Times,serif" font-size="14.00" fill="#000000">ATG&#45;1</text>
</g>
<!-- ATG&#45;0&#45;&gt;ATG&#45;1 -->
<g id="edge8" class="edge">
<title>ATG&#45;0&#45;&gt;ATG&#45;1</title>
<path fill="none" stroke="#000000" d="M706.3658,-60.9431C714.5458,-60.9431 723.3788,-60.9431 731.9353,-60.9431"/>
<polygon fill="#000000" stroke="#000000" points="732.1728,-64.4432 742.1727,-60.9431 732.1727,-57.4432 732.1728,-64.4432"/>
</g>
<!-- ATG&#45;2 -->
<g id="node9" class="node">
<title>ATG&#45;2</title>
<ellipse fill="none" stroke="#000000" cx="882.2555" cy="-60.9431" rx="34.8371" ry="34.8371"/>
<text text-anchor="middle" x="882.2555" y="-56.7431" font-family="Times,serif" font-size="14.00" fill="#000000">ATG&#45;2</text>
</g>
<!-- ATG&#45;1&#45;&gt;ATG&#45;2 -->
<g id="edge9" class="edge">
<title>ATG&#45;1&#45;&gt;ATG&#45;2</title>
<path fill="none" stroke="#000000" d="M811.7022,-60.9431C819.8821,-60.9431 828.7151,-60.9431 837.2716,-60.9431"/>
<polygon fill="#000000" stroke="#000000" points="837.5091,-64.4432 847.5091,-60.9431 837.509,-57.4432 837.5091,-64.4432"/>
</g>
<!-- CDS&#45;0 -->
<g id="node10" class="node">
<title>CDS&#45;0</title>
<ellipse fill="none" stroke="#000000" cx="987.6005" cy="-60.9431" rx="34.8545" ry="34.8545"/>
<text text-anchor="middle" x="987.6005" y="-56.7431" font-family="Times,serif" font-size="14.00" fill="#000000">CDS&#45;0</text>
</g>
<!-- ATG&#45;2&#45;&gt;CDS&#45;0 -->
<g id="edge10" class="edge">
<title>ATG&#45;2&#45;&gt;CDS&#45;0</title>
<path fill="none" stroke="#000000" d="M917.0414,-60.9431C925.2219,-60.9431 934.0557,-60.9431 942.6129,-60.9431"/>
<polygon fill="#000000" stroke="#000000" points="942.8512,-64.4432 952.8512,-60.9431 942.8511,-57.4432 942.8512,-64.4432"/>
</g>
<!-- CDS&#45;1 -->
<g id="node11" class="node">
<title>CDS&#45;1</title>
<ellipse fill="none" stroke="#000000" cx="1092.9541" cy="-92.9431" rx="34.8545" ry="34.8545"/>
<text text-anchor="middle" x="1092.9541" y="-88.7431" font-family="Times,serif" font-size="14.00" fill="#000000">CDS&#45;1</text>
</g>
<!-- CDS&#45;0&#45;&gt;CDS&#45;1 -->
<g id="edge11" class="edge">
<title>CDS&#45;0&#45;&gt;CDS&#45;1</title>
<path fill="none" stroke="#000000" d="M1020.935,-71.0681C1030.0624,-73.8404 1040.0894,-76.886 1049.6859,-79.8008"/>
<polygon fill="#000000" stroke="#000000" points="1048.8892,-83.2167 1059.4748,-82.7741 1050.9237,-76.5188 1048.8892,-83.2167"/>
</g>
<!-- CDS&#45;2 -->
<g id="node12" class="node">
<title>CDS&#45;2</title>
<ellipse fill="none" stroke="#000000" cx="1198.3077" cy="-60.9431" rx="34.8545" ry="34.8545"/>
<text text-anchor="middle" x="1198.3077" y="-56.7431" font-family="Times,serif" font-size="14.00" fill="#000000">CDS&#45;2</text>
</g>
<!-- CDS&#45;1&#45;&gt;CDS&#45;2 -->
<g id="edge12" class="edge">
<title>CDS&#45;1&#45;&gt;CDS&#45;2</title>
<path fill="none" stroke="#000000" d="M1126.2886,-82.8181C1135.416,-80.0458 1145.443,-77.0001 1155.0395,-74.0853"/>
<polygon fill="#000000" stroke="#000000" points="1156.2773,-77.3673 1164.8284,-71.1121 1154.2428,-70.6695 1156.2773,-77.3673"/>
</g>
<!-- CDS&#45;2&#45;&gt;CDS&#45;0 -->
<g id="edge13" class="edge">
<title>CDS&#45;2&#45;&gt;CDS&#45;0</title>
<path fill="none" stroke="#000000" d="M1164.3043,-53.9795C1152.7213,-51.9255 1139.6607,-49.9571 1127.6309,-48.9431 1096.916,-46.3541 1088.9922,-46.3541 1058.2773,-48.9431 1049.6308,-49.6719 1040.4519,-50.8938 1031.6719,-52.2861"/>
<polygon fill="#000000" stroke="#000000" points="1030.8848,-48.8692 1021.6039,-53.9795 1032.0459,-55.7722 1030.8848,-48.8692"/>
</g>
<!-- STOP&#45;0 -->
<g id="node13" class="node">
<title>STOP&#45;0</title>
<ellipse fill="none" stroke="#000000" cx="1307.9276" cy="-60.9431" rx="38.8862" ry="38.8862"/>
<text text-anchor="middle" x="1307.9276" y="-56.7431" font-family="Times,serif" font-size="14.00" fill="#000000">STOP&#45;0</text>
</g>
<!-- CDS&#45;2&#45;&gt;STOP&#45;0 -->
<g id="edge14" class="edge">
<title>CDS&#45;2&#45;&gt;STOP&#45;0</title>
<path fill="none" stroke="#000000" d="M1232.9921,-60.9431C1241.1973,-60.9431 1250.1013,-60.9431 1258.8114,-60.9431"/>
<polygon fill="#000000" stroke="#000000" points="1258.8938,-64.4432 1268.8938,-60.9431 1258.8938,-57.4432 1258.8938,-64.4432"/>
</g>
<!-- STOP&#45;1 -->
<g id="node15" class="node">
<title>STOP&#45;1</title>
<ellipse fill="none" stroke="#000000" cx="1421.8137" cy="-60.9431" rx="38.8862" ry="38.8862"/>
<text text-anchor="middle" x="1421.8137" y="-56.7431" font-family="Times,serif" font-size="14.00" fill="#000000">STOP&#45;1</text>
</g>
<!-- STOP&#45;0&#45;&gt;STOP&#45;1 -->
<g id="edge16" class="edge">
<title>STOP&#45;0&#45;&gt;STOP&#45;1</title>
<path fill="none" stroke="#000000" d="M1347.1207,-60.9431C1355.263,-60.9431 1363.9433,-60.9431 1372.3983,-60.9431"/>
<polygon fill="#000000" stroke="#000000" points="1372.5484,-64.4432 1382.5483,-60.9431 1372.5483,-57.4432 1372.5484,-64.4432"/>
</g>
<!-- UTR3 -->
<g id="node14" class="node">
<title>UTR3</title>
<ellipse fill="none" stroke="#000000" cx="1642.8585" cy="-60.9431" rx="32.4324" ry="32.4324"/>
<text text-anchor="middle" x="1642.8585" y="-56.7431" font-family="Times,serif" font-size="14.00" fill="#000000">UTR3</text>
</g>
<!-- UTR3&#45;&gt;UTR3 -->
<g id="edge15" class="edge">
<title>UTR3&#45;&gt;UTR3</title>
<path fill="none" stroke="#000000" d="M1623.5706,-86.78C1620.9018,-99.6652 1627.3311,-111.1586 1642.8585,-111.1586 1654.1401,-111.1586 1660.6188,-105.0913 1662.2948,-96.8311"/>
<polygon fill="#000000" stroke="#000000" points="1665.7938,-96.7271 1662.1463,-86.78 1658.7945,-96.8306 1665.7938,-96.7271"/>
</g>
<!-- STOP&#45;2 -->
<g id="node16" class="node">
<title>STOP&#45;2</title>
<ellipse fill="none" stroke="#000000" cx="1535.6999" cy="-60.9431" rx="38.8862" ry="38.8862"/>
<text text-anchor="middle" x="1535.6999" y="-56.7431" font-family="Times,serif" font-size="14.00" fill="#000000">STOP&#45;2</text>
</g>
<!-- STOP&#45;1&#45;&gt;STOP&#45;2 -->
<g id="edge17" class="edge">
<title>STOP&#45;1&#45;&gt;STOP&#45;2</title>
<path fill="none" stroke="#000000" d="M1461.0069,-60.9431C1469.1492,-60.9431 1477.8295,-60.9431 1486.2844,-60.9431"/>
<polygon fill="#000000" stroke="#000000" points="1486.4345,-64.4432 1496.4345,-60.9431 1486.4345,-57.4432 1486.4345,-64.4432"/>
</g>
<!-- STOP&#45;2&#45;&gt;UTR3 -->
<g id="edge18" class="edge">
<title>STOP&#45;2&#45;&gt;UTR3</title>
<path fill="none" stroke="#000000" d="M1574.6897,-60.9431C1583.0284,-60.9431 1591.8774,-60.9431 1600.3413,-60.9431"/>
<polygon fill="#000000" stroke="#000000" points="1600.4143,-64.4432 1610.4143,-60.9431 1600.4143,-57.4432 1600.4143,-64.4432"/>
</g>
</g>
</svg>
