<?xml version="1.0" encoding="UTF-8" standalone="no"?>
<!DOCTYPE svg PUBLIC "-//W3C//DTD SVG 1.1//EN"
 "http://www.w3.org/Graphics/SVG/1.1/DTD/svg11.dtd">
<!-- Generated by graphviz version 2.40.1 (20161225.0304)
 -->
<!-- Title: %3 Pages: 1 -->
<svg width="1147pt" height="136pt"
 viewBox="0.00 0.00 1146.59 135.62" xmlns="http://www.w3.org/2000/svg" xmlns:xlink="http://www.w3.org/1999/xlink">
<g id="graph0" class="graph" transform="scale(1 1) rotate(0) translate(4 131.6199)">
<title>%3</title>
<polygon fill="#ffffff" stroke="transparent" points="-4,4 -4,-131.6199 1142.5902,-131.6199 1142.5902,4 -4,4"/>
<text text-anchor="middle" x="569.2951" y="-6.8" font-family="Times,serif" font-size="14.00" fill="#000000">mRNA1.hmm</text>
<!-- UTR5 -->
<g id="node1" class="node">
<title>UTR5</title>
<ellipse fill="none" stroke="#000000" cx="32.2155" cy="-60.9431" rx="32.4324" ry="32.4324"/>
<text text-anchor="middle" x="32.2155" y="-56.7431" font-family="Times,serif" font-size="14.00" fill="#000000">UTR5</text>
</g>
<!-- UTR5&#45;&gt;UTR5 -->
<g id="edge1" class="edge">
<title>UTR5&#45;&gt;UTR5</title>
<path fill="none" stroke="#000000" d="M13.5574,-87.2946C11.2539,-99.9696 17.4733,-111.1586 32.2155,-111.1586 42.8114,-111.1586 49.0045,-105.3783 50.7946,-97.4206"/>
<polygon fill="#000000" stroke="#000000" points="54.2954,-97.3216 50.8736,-87.2946 47.2956,-97.267 54.2954,-97.3216"/>
</g>
<!-- ATG&#45;0 -->
<g id="node2" class="node">
<title>ATG&#45;0</title>
<ellipse fill="none" stroke="#000000" cx="135.0991" cy="-60.9431" rx="34.8371" ry="34.8371"/>
<text text-anchor="middle" x="135.0991" y="-56.7431" font-family="Times,serif" font-size="14.00" fill="#000000">ATG&#45;0</text>
</g>
<!-- UTR5&#45;&gt;ATG&#45;0 -->
<g id="edge2" class="edge">
<title>UTR5&#45;&gt;ATG&#45;0</title>
<path fill="none" stroke="#000000" d="M64.4862,-60.9431C72.5302,-60.9431 81.3041,-60.9431 89.8468,-60.9431"/>
<polygon fill="#000000" stroke="#000000" points="90.088,-64.4432 100.088,-60.9431 90.0879,-57.4432 90.088,-64.4432"/>
</g>
<!-- ATG&#45;1 -->
<g id="node3" class="node">
<title>ATG&#45;1</title>
<ellipse fill="none" stroke="#000000" cx="240.4355" cy="-60.9431" rx="34.8371" ry="34.8371"/>
<text text-anchor="middle" x="240.4355" y="-56.7431" font-family="Times,serif" font-size="14.00" fill="#000000">ATG&#45;1</text>
</g>
<!-- ATG&#45;0&#45;&gt;ATG&#45;1 -->
<g id="edge3" class="edge">
<title>ATG&#45;0&#45;&gt;ATG&#45;1</title>
<path fill="none" stroke="#000000" d="M169.8821,-60.9431C178.062,-60.9431 186.8951,-60.9431 195.4516,-60.9431"/>
<polygon fill="#000000" stroke="#000000" points="195.689,-64.4432 205.689,-60.9431 195.689,-57.4432 195.689,-64.4432"/>
</g>
<!-- ATG&#45;2 -->
<g id="node4" class="node">
<title>ATG&#45;2</title>
<ellipse fill="none" stroke="#000000" cx="345.7718" cy="-60.9431" rx="34.8371" ry="34.8371"/>
<text text-anchor="middle" x="345.7718" y="-56.7431" font-family="Times,serif" font-size="14.00" fill="#000000">ATG&#45;2</text>
</g>
<!-- ATG&#45;1&#45;&gt;ATG&#45;2 -->
<g id="edge4" class="edge">
<title>ATG&#45;1&#45;&gt;ATG&#45;2</title>
<path fill="none" stroke="#000000" d="M275.2184,-60.9431C283.3984,-60.9431 292.2314,-60.9431 300.7879,-60.9431"/>
<polygon fill="#000000" stroke="#000000" points="301.0254,-64.4432 311.0253,-60.9431 301.0253,-57.4432 301.0254,-64.4432"/>
</g>
<!-- CDS&#45;0 -->
<g id="node5" class="node">
<title>CDS&#45;0</title>
<ellipse fill="none" stroke="#000000" cx="451.1168" cy="-60.9431" rx="34.8545" ry="34.8545"/>
<text text-anchor="middle" x="451.1168" y="-56.7431" font-family="Times,serif" font-size="14.00" fill="#000000">CDS&#45;0</text>
</g>
<!-- ATG&#45;2&#45;&gt;CDS&#45;0 -->
<g id="edge5" class="edge">
<title>ATG&#45;2&#45;&gt;CDS&#45;0</title>
<path fill="none" stroke="#000000" d="M380.5576,-60.9431C388.7382,-60.9431 397.572,-60.9431 406.1292,-60.9431"/>
<polygon fill="#000000" stroke="#000000" points="406.3675,-64.4432 416.3674,-60.9431 406.3674,-57.4432 406.3675,-64.4432"/>
</g>
<!-- CDS&#45;1 -->
<g id="node6" class="node">
<title>CDS&#45;1</title>
<ellipse fill="none" stroke="#000000" cx="556.4704" cy="-92.9431" rx="34.8545" ry="34.8545"/>
<text text-anchor="middle" x="556.4704" y="-88.7431" font-family="Times,serif" font-size="14.00" fill="#000000">CDS&#45;1</text>
</g>
<!-- CDS&#45;0&#45;&gt;CDS&#45;1 -->
<g id="edge6" class="edge">
<title>CDS&#45;0&#45;&gt;CDS&#45;1</title>
<path fill="none" stroke="#000000" d="M484.4513,-71.0681C493.5786,-73.8404 503.6057,-76.886 513.2022,-79.8008"/>
<polygon fill="#000000" stroke="#000000" points="512.4055,-83.2167 522.9911,-82.7741 514.4399,-76.5188 512.4055,-83.2167"/>
</g>
<!-- CDS&#45;2 -->
<g id="node7" class="node">
<title>CDS&#45;2</title>
<ellipse fill="none" stroke="#000000" cx="661.824" cy="-60.9431" rx="34.8545" ry="34.8545"/>
<text text-anchor="middle" x="661.824" y="-56.7431" font-family="Times,serif" font-size="14.00" fill="#000000">CDS&#45;2</text>
</g>
<!-- CDS&#45;1&#45;&gt;CDS&#45;2 -->
<g id="edge7" class="edge">
<title>CDS&#45;1&#45;&gt;CDS&#45;2</title>
<path fill="none" stroke="#000000" d="M589.8049,-82.8181C598.9322,-80.0458 608.9593,-77.0001 618.5558,-74.0853"/>
<polygon fill="#000000" stroke="#000000" points="619.7935,-77.3673 628.3447,-71.1121 617.7591,-70.6695 619.7935,-77.3673"/>
</g>
<!-- CDS&#45;2&#45;&gt;CDS&#45;0 -->
<g id="edge8" class="edge">
<title>CDS&#45;2&#45;&gt;CDS&#45;0</title>
<path fill="none" stroke="#000000" d="M627.8206,-53.9795C616.2375,-51.9255 603.177,-49.9571 591.1472,-48.9431 560.4323,-46.3541 552.5085,-46.3541 521.7936,-48.9431 513.1471,-49.6719 503.9682,-50.8938 495.1881,-52.2861"/>
<polygon fill="#000000" stroke="#000000" points="494.401,-48.8692 485.1201,-53.9795 495.5622,-55.7722 494.401,-48.8692"/>
</g>
<!-- STOP&#45;0 -->
<g id="node8" class="node">
<title>STOP&#45;0</title>
<ellipse fill="none" stroke="#000000" cx="771.4438" cy="-60.9431" rx="38.8862" ry="38.8862"/>
<text text-anchor="middle" x="771.4438" y="-56.7431" font-family="Times,serif" font-size="14.00" fill="#000000">STOP&#45;0</text>
</g>
<!-- CDS&#45;2&#45;&gt;STOP&#45;0 -->
<g id="edge9" class="edge">
<title>CDS&#45;2&#45;&gt;STOP&#45;0</title>
<path fill="none" stroke="#000000" d="M696.5084,-60.9431C704.7136,-60.9431 713.6176,-60.9431 722.3277,-60.9431"/>
<polygon fill="#000000" stroke="#000000" points="722.4101,-64.4432 732.4101,-60.9431 722.41,-57.4432 722.4101,-64.4432"/>
</g>
<!-- STOP&#45;1 -->
<g id="node10" class="node">
<title>STOP&#45;1</title>
<ellipse fill="none" stroke="#000000" cx="885.33" cy="-60.9431" rx="38.8862" ry="38.8862"/>
<text text-anchor="middle" x="885.33" y="-56.7431" font-family="Times,serif" font-size="14.00" fill="#000000">STOP&#45;1</text>
</g>
<!-- STOP&#45;0&#45;&gt;STOP&#45;1 -->
<g id="edge11" class="edge">
<title>STOP&#45;0&#45;&gt;STOP&#45;1</title>
<path fill="none" stroke="#000000" d="M810.637,-60.9431C818.7793,-60.9431 827.4596,-60.9431 835.9145,-60.9431"/>
<polygon fill="#000000" stroke="#000000" points="836.0646,-64.4432 846.0646,-60.9431 836.0646,-57.4432 836.0646,-64.4432"/>
</g>
<!-- UTR3 -->
<g id="node9" class="node">
<title>UTR3</title>
<ellipse fill="none" stroke="#000000" cx="1106.3747" cy="-60.9431" rx="32.4324" ry="32.4324"/>
<text text-anchor="middle" x="1106.3747" y="-56.7431" font-family="Times,serif" font-size="14.00" fill="#000000">UTR3</text>
</g>
<!-- UTR3&#45;&gt;UTR3 -->
<g id="edge10" class="edge">
<title>UTR3&#45;&gt;UTR3</title>
<path fill="none" stroke="#000000" d="M1087.0869,-86.78C1084.4181,-99.6652 1090.8474,-111.1586 1106.3747,-111.1586 1117.6563,-111.1586 1124.1351,-105.0913 1125.8111,-96.8311"/>
<polygon fill="#000000" stroke="#000000" points="1129.31,-96.7271 1125.6626,-86.78 1122.3108,-96.8306 1129.31,-96.7271"/>
</g>
<!-- STOP&#45;2 -->
<g id="node11" class="node">
<title>STOP&#45;2</title>
<ellipse fill="none" stroke="#000000" cx="999.2162" cy="-60.9431" rx="38.8862" ry="38.8862"/>
<text text-anchor="middle" x="999.2162" y="-56.7431" font-family="Times,serif" font-size="14.00" fill="#000000">STOP&#45;2</text>
</g>
<!-- STOP&#45;1&#45;&gt;STOP&#45;2 -->
<g id="edge12" class="edge">
<title>STOP&#45;1&#45;&gt;STOP&#45;2</title>
<path fill="none" stroke="#000000" d="M924.5232,-60.9431C932.6655,-60.9431 941.3458,-60.9431 949.8007,-60.9431"/>
<polygon fill="#000000" stroke="#000000" points="949.9508,-64.4432 959.9508,-60.9431 949.9507,-57.4432 949.9508,-64.4432"/>
</g>
<!-- STOP&#45;2&#45;&gt;UTR3 -->
<g id="edge13" class="edge">
<title>STOP&#45;2&#45;&gt;UTR3</title>
<path fill="none" stroke="#000000" d="M1038.206,-60.9431C1046.5447,-60.9431 1055.3937,-60.9431 1063.8576,-60.9431"/>
<polygon fill="#000000" stroke="#000000" points="1063.9306,-64.4432 1073.9306,-60.9431 1063.9305,-57.4432 1063.9306,-64.4432"/>
</g>
</g>
</svg>
